<svg
        width="80"
        height="80"
        viewBox="0 0 80 80"
        fill="none"
        xmlns="http://www.w3.org/2000/svg"
>
    <rect
            width="80"
            height="80"
            rx="40"
            fill="url(#paint0_linear_15655_22645)"
    />
    <g filter="url(#filter0_ddii_15655_22645)">
        <path
                d="M39.7184 60.2735C42.4926 60.2735 45.0983 59.742 47.5354 58.679C49.9855 57.629 52.144 56.1706 54.0107 54.3038C55.8775 52.4371 57.3424 50.2851 58.4054 47.848C59.4684 45.3979 59.9999 42.7792 59.9999 39.992C59.9999 37.2178 59.4684 34.6122 58.4054 32.175C57.3424 29.7249 55.8775 27.5665 54.0107 25.6997C52.144 23.833 49.9855 22.3745 47.5354 21.3245C45.0983 20.2615 42.4926 19.73 39.7184 19.73C36.9442 19.73 34.3385 20.255 31.9013 21.3051C29.4642 22.3421 27.3122 23.7876 25.4455 25.6414C23.5787 27.4952 22.1138 29.6406 21.0508 32.0778C19.9878 34.5149 19.4498 37.1141 19.4369 39.8754H23.8899C23.9028 37.6845 24.3177 35.6428 25.1344 33.7501C25.9511 31.8444 27.0854 30.1786 28.5373 28.7526C29.9892 27.3266 31.668 26.2118 33.5736 25.408C35.4793 24.5913 37.5275 24.183 39.7184 24.183C41.9092 24.183 43.9575 24.5913 45.8631 25.408C47.7817 26.2247 49.4605 27.359 50.8995 28.811C52.3514 30.2499 53.4857 31.9287 54.3024 33.8473C55.1321 35.753 55.5469 37.8012 55.5469 39.992C55.5469 42.1958 55.1321 44.2571 54.3024 46.1757C53.4857 48.0813 52.3514 49.7601 50.8995 51.212C49.4605 52.6639 47.7817 53.7982 45.8631 54.6149C43.9575 55.4317 41.9092 55.8335 39.7184 55.8206C38.0461 55.8206 36.458 55.5807 34.9543 55.1011C33.4635 54.6214 32.0828 53.9408 30.8124 53.0593C29.5549 52.1648 28.4401 51.1148 27.4678 49.9092C27.0141 49.4166 26.4891 49.1119 25.8927 48.9952C25.2964 48.8656 24.739 49.0082 24.2204 49.423C23.7278 49.799 23.4556 50.2981 23.4037 50.9203C23.3648 51.5296 23.5982 52.1324 24.1038 52.7288C25.2705 54.2196 26.677 55.5354 28.3234 56.6762C29.9827 57.817 31.7847 58.6985 33.7292 59.3207C35.6867 59.9559 37.6831 60.2735 39.7184 60.2735ZM17.1229 35.8891C16.5914 35.8891 16.1895 36.0122 15.9173 36.2585C15.658 36.5048 15.5348 36.8224 15.5478 37.2114C15.5608 37.5873 15.7098 37.9697 15.995 38.3586L20.9731 45.1645C21.3101 45.6182 21.712 45.8451 22.1787 45.8451C22.6454 45.8321 23.0407 45.6053 23.3648 45.1645L28.3623 38.3392C28.6345 37.9503 28.7706 37.5679 28.7706 37.1919C28.7836 36.816 28.6605 36.5048 28.4012 36.2585C28.1419 36.0122 27.7465 35.8891 27.215 35.8891H17.1229Z"
                fill="white"
        />
    </g>
    <path
            opacity="0.5"
            d="M32.6614 34.8954H41.3703C41.6683 34.8954 41.9175 34.7875 42.1179 34.5717C42.3183 34.3559 42.4185 34.1067 42.4185 33.8241C42.4185 33.5261 42.3183 33.2718 42.1179 33.0611C41.9227 32.8504 41.6735 32.7451 41.3703 32.7451H32.6614C32.3634 32.7451 32.1142 32.853 31.9139 33.0688C31.7135 33.2795 31.6133 33.5312 31.6133 33.8241C31.6133 34.1015 31.7135 34.3507 31.9139 34.5717C32.1194 34.7875 32.3686 34.8954 32.6614 34.8954ZM44.7691 34.8954H47.6361C47.929 34.8954 48.1756 34.7875 48.376 34.5717C48.5815 34.3559 48.6843 34.1067 48.6843 33.8241C48.6843 33.5261 48.5841 33.2718 48.3837 33.0611C48.1833 32.8504 47.9341 32.7451 47.6361 32.7451H44.7691C44.4814 32.7451 44.2348 32.853 44.0292 33.0688C43.8289 33.2795 43.7287 33.5312 43.7287 33.8241C43.7287 34.1015 43.8314 34.3507 44.0369 34.5717C44.2425 34.7875 44.4865 34.8954 44.7691 34.8954ZM32.6614 38.9415H33.6094C33.9023 38.9415 34.1489 38.8336 34.3493 38.6178C34.5496 38.3969 34.6498 38.1451 34.6498 37.8626C34.6498 37.5646 34.5496 37.3102 34.3493 37.0996C34.154 36.8889 33.9074 36.7836 33.6094 36.7836H32.6614C32.3686 36.7836 32.1194 36.8915 31.9139 37.1073C31.7135 37.3231 31.6133 37.5748 31.6133 37.8626C31.6133 38.14 31.7135 38.3892 31.9139 38.6101C32.1194 38.8311 32.3686 38.9415 32.6614 38.9415ZM37.0082 38.9415H40.6227C40.9156 38.9415 41.1622 38.8336 41.3626 38.6178C41.5681 38.3969 41.6709 38.1451 41.6709 37.8626C41.6709 37.5646 41.5707 37.3102 41.3703 37.0996C41.1699 36.8889 40.9208 36.7836 40.6227 36.7836H37.0082C36.7153 36.7836 36.4687 36.8915 36.2683 37.1073C36.0679 37.3231 35.9677 37.5748 35.9677 37.8626C35.9677 38.14 36.0679 38.3892 36.2683 38.6101C36.4738 38.8311 36.7204 38.9415 37.0082 38.9415ZM44.0215 38.9415H47.6361C47.9341 38.9415 48.1833 38.8336 48.3837 38.6178C48.5841 38.3969 48.6843 38.1451 48.6843 37.8626C48.6843 37.5646 48.5841 37.3102 48.3837 37.0996C48.1833 36.8889 47.9341 36.7836 47.6361 36.7836H44.0215C43.7287 36.7836 43.482 36.8915 43.2817 37.1073C43.0813 37.3231 42.9811 37.5748 42.9811 37.8626C42.9811 38.14 43.0813 38.3892 43.2817 38.6101C43.4872 38.8311 43.7338 38.9415 44.0215 38.9415ZM32.6614 42.9877H35.5284C35.811 42.9877 36.0551 42.8772 36.2606 42.6563C36.4661 42.4354 36.5689 42.1862 36.5689 41.9087C36.5689 41.621 36.4661 41.3718 36.2606 41.1611C36.0602 40.9454 35.8162 40.8375 35.5284 40.8375H32.6614C32.3634 40.8375 32.1142 40.9428 31.9139 41.1534C31.7135 41.3641 31.6133 41.6159 31.6133 41.9087C31.6133 42.1965 31.7135 42.4482 31.9139 42.664C32.1194 42.8798 32.3686 42.9877 32.6614 42.9877ZM38.9272 42.9877H47.6361C47.929 42.9877 48.1756 42.8772 48.376 42.6563C48.5815 42.4354 48.6843 42.1862 48.6843 41.9087C48.6843 41.621 48.5841 41.3718 48.3837 41.1611C48.1833 40.9454 47.9341 40.8375 47.6361 40.8375H38.9272C38.6292 40.8375 38.38 40.9428 38.1796 41.1534C37.9793 41.3641 37.8791 41.6159 37.8791 41.9087C37.8791 42.1965 37.9793 42.4482 38.1796 42.664C38.38 42.8798 38.6292 42.9877 38.9272 42.9877ZM32.6614 47.0262H40.3607C40.6536 47.0262 40.9002 46.9183 41.1006 46.7025C41.3061 46.4867 41.4089 46.2375 41.4089 45.9549C41.4089 45.6569 41.3061 45.4026 41.1006 45.1919C40.9002 44.9761 40.6536 44.8682 40.3607 44.8682H32.6614C32.3634 44.8682 32.1142 44.9761 31.9139 45.1919C31.7135 45.4077 31.6133 45.662 31.6133 45.9549C31.6133 46.2323 31.7135 46.479 31.9139 46.6948C32.1194 46.9157 32.3686 47.0262 32.6614 47.0262Z"
            fill="url(#paint1_linear_15655_22645)"
    />
    <path
            d="M32.6614 34.8954H41.3703C41.6683 34.8954 41.9175 34.7875 42.1179 34.5717C42.3183 34.3559 42.4185 34.1067 42.4185 33.8241C42.4185 33.5261 42.3183 33.2718 42.1179 33.0611C41.9227 32.8504 41.6735 32.7451 41.3703 32.7451H32.6614C32.3634 32.7451 32.1142 32.853 31.9139 33.0688C31.7135 33.2795 31.6133 33.5312 31.6133 33.8241C31.6133 34.1015 31.7135 34.3507 31.9139 34.5717C32.1194 34.7875 32.3686 34.8954 32.6614 34.8954ZM44.0215 38.9415H47.6361C47.9341 38.9415 48.1833 38.8336 48.3837 38.6178C48.5841 38.3969 48.6843 38.1451 48.6843 37.8626C48.6843 37.5646 48.5841 37.3102 48.3837 37.0996C48.1833 36.8889 47.9341 36.7836 47.6361 36.7836H44.0215C43.7287 36.7836 43.482 36.8915 43.2817 37.1073C43.0813 37.3231 42.9811 37.5748 42.9811 37.8626C42.9811 38.14 43.0813 38.3892 43.2817 38.6101C43.4872 38.8311 43.7338 38.9415 44.0215 38.9415ZM32.6614 42.9877H35.5284C35.811 42.9877 36.0551 42.8772 36.2606 42.6563C36.4661 42.4354 36.5689 42.1862 36.5689 41.9087C36.5689 41.621 36.4661 41.3718 36.2606 41.1611C36.0602 40.9454 35.8162 40.8375 35.5284 40.8375H32.6614C32.3634 40.8375 32.1142 40.9428 31.9139 41.1534C31.7135 41.3641 31.6133 41.6159 31.6133 41.9087C31.6133 42.1965 31.7135 42.4482 31.9139 42.664C32.1194 42.8798 32.3686 42.9877 32.6614 42.9877ZM32.6614 47.0262H40.3607C40.6536 47.0262 40.9002 46.9183 41.1006 46.7025C41.3061 46.4867 41.4089 46.2375 41.4089 45.9549C41.4089 45.6569 41.3061 45.4026 41.1006 45.1919C40.9002 44.9761 40.6536 44.8682 40.3607 44.8682H32.6614C32.3634 44.8682 32.1142 44.9761 31.9139 45.1919C31.7135 45.4077 31.6133 45.662 31.6133 45.9549C31.6133 46.2323 31.7135 46.479 31.9139 46.6948C32.1194 46.9157 32.3686 47.0262 32.6614 47.0262Z"
            fill="url(#paint2_linear_15655_22645)"
    />
    <defs>
        <filter
                id="filter0_ddii_15655_22645"
                x="12.5469"
                y="18.73"
                width="50.4531"
                height="46.5435"
                filterUnits="userSpaceOnUse"
                color-interpolation-filters="sRGB"
        >
            <feFlood flood-opacity="0" result="BackgroundImageFix" />
            <feColorMatrix
                    in="SourceAlpha"
                    type="matrix"
                    values="0 0 0 0 0 0 0 0 0 0 0 0 0 0 0 0 0 0 127 0"
                    result="hardAlpha"
            />
            <feOffset dy="0.5" />
            <feGaussianBlur stdDeviation="0.25" />
            <feComposite in2="hardAlpha" operator="out" />
            <feColorMatrix
                    type="matrix"
                    values="0 0 0 0 0 0 0 0 0 0 0 0 0 0 0 0 0 0 0.05 0"
            />
            <feBlend
                    mode="normal"
                    in2="BackgroundImageFix"
                    result="effect1_dropShadow_15655_22645"
            />
            <feColorMatrix
                    in="SourceAlpha"
                    type="matrix"
                    values="0 0 0 0 0 0 0 0 0 0 0 0 0 0 0 0 0 0 127 0"
                    result="hardAlpha"
            />
            <feOffset dy="2" />
            <feGaussianBlur stdDeviation="1.5" />
            <feComposite in2="hardAlpha" operator="out" />
            <feColorMatrix
                    type="matrix"
                    values="0 0 0 0 0 0 0 0 0 0 0 0 0 0 0 0 0 0 0.05 0"
            />
            <feBlend
                    mode="normal"
                    in2="effect1_dropShadow_15655_22645"
                    result="effect2_dropShadow_15655_22645"
            />
            <feBlend
                    mode="normal"
                    in="SourceGraphic"
                    in2="effect2_dropShadow_15655_22645"
                    result="shape"
            />
            <feColorMatrix
                    in="SourceAlpha"
                    type="matrix"
                    values="0 0 0 0 0 0 0 0 0 0 0 0 0 0 0 0 0 0 127 0"
                    result="hardAlpha"
            />
            <feOffset dx="0.15" dy="0.15" />
            <feGaussianBlur stdDeviation="1" />
            <feComposite in2="hardAlpha" operator="arithmetic" k2="-1" k3="1" />
            <feColorMatrix
                    type="matrix"
                    values="0 0 0 0 0 0 0 0 0 0 0 0 0 0 0 0 0 0 0.1 0"
            />
            <feBlend
                    mode="normal"
                    in2="shape"
                    result="effect3_innerShadow_15655_22645"
            />
            <feColorMatrix
                    in="SourceAlpha"
                    type="matrix"
                    values="0 0 0 0 0 0 0 0 0 0 0 0 0 0 0 0 0 0 127 0"
                    result="hardAlpha"
            />
            <feOffset dx="-0.15" dy="-0.15" />
            <feGaussianBlur stdDeviation="1" />
            <feComposite in2="hardAlpha" operator="arithmetic" k2="-1" k3="1" />
            <feColorMatrix
                    type="matrix"
                    values="0 0 0 0 0 0 0 0 0 0 0 0 0 0 0 0 0 0 0.1 0"
            />
            <feBlend
                    mode="normal"
                    in2="effect3_innerShadow_15655_22645"
                    result="effect4_innerShadow_15655_22645"
            />
        </filter>
        <linearGradient
                id="paint0_linear_15655_22645"
                x1="40"
                y1="0"
                x2="40"
                y2="80"
                gradientUnits="userSpaceOnUse"
        >
            <stop stop-color="#78C4F5" />
            <stop offset="1" stop-color="#31A3EF" />
        </linearGradient>
        <linearGradient
                id="paint1_linear_15655_22645"
                x1="40.1488"
                y1="32.7451"
                x2="40.1488"
                y2="47.0262"
                gradientUnits="userSpaceOnUse"
        >
            <stop stop-color="white" />
            <stop offset="1" stop-color="#F2F2F2" />
        </linearGradient>
        <linearGradient
                id="paint2_linear_15655_22645"
                x1="40.1488"
                y1="32.7451"
                x2="40.1488"
                y2="47.0262"
                gradientUnits="userSpaceOnUse"
        >
            <stop stop-color="white" />
            <stop offset="1" stop-color="#F2F2F2" />
        </linearGradient>
    </defs>
</svg>