<svg
        width="50"
        height="50"
        viewBox="0 0 50 50"
        fill="none"
        xmlns="http://www.w3.org/2000/svg"
>
    <path
            fill-rule="evenodd"
            clip-rule="evenodd"
            d="M30.0088 36.9804C28.4454 37.6601 26.7758 38 25 38C23.2242 38 21.5503 37.6601 19.9784 36.9804C18.415 36.3007 17.0343 35.3618 15.8363 34.1637C14.6382 32.9657 13.6993 31.585 13.0196 30.0216C12.3399 28.4497 12 26.7758 12 25C12 23.2242 12.3399 21.5546 13.0196 19.9912C13.6993 18.4193 14.634 17.0343 15.8235 15.8363C17.0216 14.6382 18.4023 13.6993 19.9657 13.0196C21.5376 12.3399 23.2114 12 24.9873 12C26.7631 12 28.4369 12.3399 30.0088 13.0196C31.5807 13.6993 32.9657 14.6382 34.1637 15.8363C35.3618 17.0343 36.3007 18.4193 36.9804 19.9912C37.6601 21.5546 38 23.2242 38 25C38 26.7758 37.6601 28.4497 36.9804 30.0216C36.3007 31.585 35.3618 32.9657 34.1637 34.1637C32.9657 35.3618 31.5807 36.3007 30.0088 36.9804ZM20.7814 34.9922C22.0899 35.5529 23.4961 35.8333 25 35.8333C26.5039 35.8333 27.9101 35.5529 29.2186 34.9922C30.5271 34.4314 31.6784 33.6582 32.6725 32.6725C33.6667 31.6784 34.4399 30.5271 34.9922 29.2186C35.5529 27.9101 35.8333 26.5039 35.8333 25C35.8333 23.4961 35.5529 22.0899 34.9922 20.7814C34.4314 19.4729 33.6539 18.3216 32.6598 17.3275C31.6742 16.3333 30.5229 15.5601 29.2059 15.0078C27.8974 14.4471 26.4912 14.1667 24.9873 14.1667C23.4833 14.1667 22.0771 14.4471 20.7686 15.0078C19.4601 15.5601 18.3131 16.3333 17.3275 17.3275C16.3418 18.3216 15.5686 19.4729 15.0078 20.7814C14.4556 22.0899 14.1794 23.4961 14.1794 25C14.1794 26.5039 14.4556 27.9101 15.0078 29.2186C15.5686 30.5271 16.3418 31.6784 17.3275 32.6725C18.3216 33.6582 19.4729 34.4314 20.7814 34.9922ZM22.2725 23.3814C21.9667 23.7042 21.6098 23.8657 21.202 23.8657C20.8026 23.8657 20.4542 23.7042 20.1569 23.3814C19.8595 23.05 19.7108 22.6294 19.7108 22.1196C19.7108 21.6098 19.8595 21.1892 20.1569 20.8578C20.4542 20.5265 20.8026 20.3608 21.202 20.3608C21.6098 20.3608 21.9667 20.5265 22.2725 20.8578C22.5784 21.1892 22.7314 21.6098 22.7314 22.1196C22.7314 22.6294 22.5784 23.05 22.2725 23.3814ZM29.8304 23.3814C29.5245 23.7042 29.1676 23.8657 28.7598 23.8657C28.3605 23.8657 28.0121 23.7042 27.7147 23.3814C27.4173 23.05 27.2686 22.6294 27.2686 22.1196C27.2686 21.6098 27.4173 21.1892 27.7147 20.8578C28.0121 20.5265 28.3605 20.3608 28.7598 20.3608C29.1676 20.3608 29.5245 20.5265 29.8304 20.8578C30.1363 21.1892 30.2892 21.6098 30.2892 22.1196C30.2892 22.6294 30.1363 23.05 29.8304 23.3814ZM22.6549 28.8809C23.3261 28.5665 24.1036 28.4093 24.9873 28.4093C25.8709 28.4093 26.6484 28.5665 27.3196 28.8809C27.9908 29.2038 28.5134 29.5691 28.8873 29.977C29.2526 30.3933 29.4353 30.7417 29.4353 31.0221C29.4353 31.175 29.3758 31.2812 29.2569 31.3407C29.1379 31.4002 29.0105 31.4002 28.8745 31.3407C28.4072 31.0858 27.8761 30.8394 27.2814 30.6015C26.6781 30.3721 25.9134 30.2574 24.9873 30.2574C24.0611 30.2574 23.3007 30.3721 22.7059 30.6015C22.1026 30.8394 21.5716 31.0858 21.1127 31.3407C20.9768 31.4002 20.8493 31.4002 20.7304 31.3407C20.6029 31.2812 20.5392 31.175 20.5392 31.0221C20.5392 30.7417 20.7261 30.3933 21.1 29.977C21.4654 29.5691 21.9837 29.2038 22.6549 28.8809Z"
            fill="#E85C4A"
    />
</svg>